<svg xmlns="http://www.w3.org/2000/svg" viewBox="0 0 64 56"><defs><style>.cls-1{fill:#ffb74d;}.cls-2{fill:#aa752e;}.cls-3{fill:#ff2400;}.cls-4{fill:#74d800;}.cls-5{fill:#ffda00;}.cls-6{fill:#fff;opacity:0.4;}</style></defs><title>Food Hamburger</title><g id="Layer_2" data-name="Layer 2"><g id="Layer_1-2" data-name="Layer 1"><path class="cls-1" d="M60,26H4a4,4,0,0,1-4-4H0C0,9.85,14,0,32,0h0C50,0,64,9.85,64,22h0A4,4,0,0,1,60,26Z"/><path class="cls-1" d="M4,44H60a4,4,0,0,1,4,4v0a8,8,0,0,1-8,8H8a8,8,0,0,1-8-8v0a4,4,0,0,1,4-4Z"/><rect class="cls-2" y="32" width="64" height="8" rx="4" ry="4"/><rect class="cls-3" x="2" y="26" width="60" height="6" rx="3" ry="3"/><path class="cls-4" d="M60,40H4a4,4,0,0,0-4,4s0,4,4,4,8-2,12-2,8,2,12,2,16-2,20-2,8,2,12,2,4-2,4-4A4,4,0,0,0,60,40Z"/><polygon class="cls-5" points="36 32 46 42 56 32 36 32"/><circle class="cls-6" cx="18" cy="14" r="2"/><circle class="cls-6" cx="8" cy="20" r="2"/><circle class="cls-6" cx="40" cy="14" r="2"/><circle class="cls-6" cx="30" cy="20" r="2"/><circle class="cls-6" cx="52" cy="18" r="2"/><circle class="cls-6" cx="36" cy="6" r="2"/></g></g></svg>